<mxfile host="app.diagrams.net" modified="2023-06-28T03:22:12.658Z" agent="Mozilla/5.0 (Macintosh; Intel Mac OS X 10_15_7) AppleWebKit/537.36 (KHTML, like Gecko) Chrome/114.0.0.0 Safari/537.36" etag="Ipkydcw_U2uFXk8hk-mi" version="21.5.1" type="github">
  <diagram name="第 1 页" id="CBRe3dCf0QQ9tlYPQUaY">
    <mxGraphModel dx="954" dy="460" grid="1" gridSize="10" guides="1" tooltips="1" connect="1" arrows="1" fold="1" page="1" pageScale="1" pageWidth="827" pageHeight="1169" math="0" shadow="0">
      <root>
        <mxCell id="0" />
        <mxCell id="1" parent="0" />
        <mxCell id="nhOmZ0pb8DDqjNV5EH88-1" value="Actor" style="shape=umlActor;verticalLabelPosition=bottom;verticalAlign=top;html=1;outlineConnect=0;" vertex="1" parent="1">
          <mxGeometry x="140" y="230" width="30" height="60" as="geometry" />
        </mxCell>
        <mxCell id="nhOmZ0pb8DDqjNV5EH88-4" value="" style="whiteSpace=wrap;html=1;aspect=fixed;" vertex="1" parent="1">
          <mxGeometry x="250" y="85" width="435" height="435" as="geometry" />
        </mxCell>
        <mxCell id="nhOmZ0pb8DDqjNV5EH88-5" value="任务管理" style="text;strokeColor=none;align=center;fillColor=none;html=1;verticalAlign=middle;whiteSpace=wrap;rounded=0;" vertex="1" parent="1">
          <mxGeometry x="250" y="90" width="60" height="30" as="geometry" />
        </mxCell>
        <mxCell id="nhOmZ0pb8DDqjNV5EH88-6" value="任务管理" style="ellipse;whiteSpace=wrap;html=1;" vertex="1" parent="1">
          <mxGeometry x="270" y="220" width="120" height="80" as="geometry" />
        </mxCell>
        <mxCell id="nhOmZ0pb8DDqjNV5EH88-7" value="" style="endArrow=classic;html=1;rounded=0;entryX=0;entryY=0.5;entryDx=0;entryDy=0;exitX=1;exitY=0.3333333333333333;exitDx=0;exitDy=0;exitPerimeter=0;" edge="1" parent="1" source="nhOmZ0pb8DDqjNV5EH88-1" target="nhOmZ0pb8DDqjNV5EH88-6">
          <mxGeometry width="50" height="50" relative="1" as="geometry">
            <mxPoint x="170" y="220" as="sourcePoint" />
            <mxPoint x="220" y="170" as="targetPoint" />
          </mxGeometry>
        </mxCell>
        <mxCell id="nhOmZ0pb8DDqjNV5EH88-9" value="" style="ellipse;whiteSpace=wrap;html=1;" vertex="1" parent="1">
          <mxGeometry x="480" y="100" width="120" height="80" as="geometry" />
        </mxCell>
        <mxCell id="nhOmZ0pb8DDqjNV5EH88-10" value="" style="ellipse;whiteSpace=wrap;html=1;" vertex="1" parent="1">
          <mxGeometry x="480" y="200" width="120" height="80" as="geometry" />
        </mxCell>
        <mxCell id="nhOmZ0pb8DDqjNV5EH88-11" value="" style="ellipse;whiteSpace=wrap;html=1;" vertex="1" parent="1">
          <mxGeometry x="480" y="320" width="120" height="80" as="geometry" />
        </mxCell>
        <mxCell id="nhOmZ0pb8DDqjNV5EH88-12" value="" style="ellipse;whiteSpace=wrap;html=1;" vertex="1" parent="1">
          <mxGeometry x="480" y="430" width="120" height="80" as="geometry" />
        </mxCell>
        <mxCell id="nhOmZ0pb8DDqjNV5EH88-14" value="" style="endArrow=classic;html=1;rounded=0;entryX=0.075;entryY=0.738;entryDx=0;entryDy=0;entryPerimeter=0;" edge="1" parent="1" target="nhOmZ0pb8DDqjNV5EH88-9">
          <mxGeometry width="50" height="50" relative="1" as="geometry">
            <mxPoint x="390" y="260" as="sourcePoint" />
            <mxPoint x="440" y="210" as="targetPoint" />
          </mxGeometry>
        </mxCell>
      </root>
    </mxGraphModel>
  </diagram>
</mxfile>
